<svg xmlns="http://www.w3.org/2000/svg" xmlns:xlink="http://www.w3.org/1999/xlink" id="Layer_1" x="0px" y="0px" viewBox="0 0 540 84.7" style="enable-background:new 0 0 540 84.7;" xml:space="preserve"><style type="text/css">	.st0{fill:#FFFFFF;}</style><g>	<g>		<path class="st0" d="M26,27.5c0,0.2-0.9,0.5-1.5,0.6v5.6c0.8,0.4,2.1,1.2,3.8,3.1V25.9C27.2,27.1,26,27.2,26,27.5L26,27.5z    M28.2,18.2V3.1h82.6v24.7c0.6-0.8,1.6-1.3,3.1-0.8V0H24.4v10.9C26.2,11.7,27.2,15.3,28.2,18.2L28.2,18.2z M110.8,75.4H28.2V54.1   c-0.8,1.1-2.2,2.7-3.8,3.6v21.2h89.4v-20c-1.3-0.4-2.2-1.2-3.1-1.5V75.4L110.8,75.4z M30.1,46C30.6,37.8,24,34.6,20,32.5   c-5.7-3-10.1-4.7-10.6-8.8c-0.4-3.7,1.9-6.3,4.8-6.8c2.2-0.3,3.8,0.6,4.6,2.6c0.6,1.4,1.9,4.9,1.9,4.9s0.2,1,0.9,1.8   c0.7,0.7,1.2,0.4,1.2,0.4s0.5,0.3,1.2,0.3c0.6-0.1,1.5-0.6,2-1.1c1.3-0.5,2.7-1.2,2.5-1.7c-2.1-8.4-3.4-10.8-4.7-11.9   c-1.1-0.9-2.6-1-3.5-0.5C8.5,9.8,3.1,16.7,2,21.9c-1.7,7.4,2.2,11.5,8.8,16c4.2,2.8,10.8,4,11.8,8.6c0.6,2.7-1.5,4.6-5.8,4.7   c-9.7,0.3-11-6.7-12.7-7.2c-1.2-0.4-1.3,1.5-1.8,2.4c-0.5,0.9-2.7,2.2-2.2,4c3.5,5.1,8.5,7.9,14.7,8.3   C23.5,59.3,29.7,52.4,30.1,46L30.1,46z M119.9,72.6c-1.7,0-3.1,1.4-3.1,3.1c0,1.7,1.4,3.1,3.1,3.1c1.7,0,3.1-1.4,3.1-3.1   C122.9,73.9,121.6,72.6,119.9,72.6L119.9,72.6z M119.9,78c-1.3,0-2.4-1.1-2.4-2.4c0-1.3,1.1-2.4,2.4-2.4c1.3,0,2.4,1.1,2.4,2.4   C122.3,77,121.2,78,119.9,78L119.9,78z M121.2,74.9c0-0.6-0.5-0.8-0.9-0.8c-1.3,0-0.4,0-1.5,0v3.1h0.6l0-1.3c0,0,0.5,0,0.5,0   c0.3,0.5,0.7,1.3,0.7,1.3l0.7,0c0,0-0.6-1.1-0.8-1.4C120.4,75.8,121.2,75.7,121.2,74.9L121.2,74.9z M119.3,75.4v-0.9   c0.6,0,0.1,0,0.8,0c0.2,0,0.5,0.1,0.5,0.4c0,0.4-0.4,0.4-0.4,0.4L119.3,75.4L119.3,75.4z M137.9,41.3c-0.7-0.6-1.5,3.4-5.3,6   c-1.5,1-3.8,0.5-3.9-2.9c-0.2-4.6,1.9-12.3,2-12.7c1-2.7,0.9-2.6,0.9-3.1c0-0.5-0.9-0.9-2-1.3c-0.3-0.1-0.9-0.9-1.4-1   c-1.8-0.2-2.2-0.3-2.8-0.2c-0.5,0-0.7,0.3-1.3,0.9c-0.5,0.6-0.7,3.2-1.6,6c-1,2.8-6.3,15.2-6.1,14.2c-0.1-3.5,1.7-12.7,2-14.2   c0.3-1.5,0.9-2.2,0-3.4c-1-1.4-1.8-1.1-4.3-1.3c-0.3,0-1.2-0.3-1.8-0.2c-0.5,0.1-1.2,0.9-1.3,1.4c-0.1,0.4-0.2,7.1-0.8,13.5   c-0.5,4.7-0.5,4.4-1.9,5c-1.4,0.6-4.1-1.1-3.6-1.4c4.3-13.5-0.5-18.9-1.1-19.1c-0.7-0.2-4-0.9-4.8-0.6c-0.5,0.1-1.2,2.3-1.3,2.2   c-1.4-1.4-2.4-1.4-3-1c-0.5,0.3-1.4-0.5-2.7,0.1c-0.6,0.3-1.1,1.8-1.4,3c-1,2.1-2.6,10.5-2.5,15.9c-1.8,3.9-3.8,4.7-5.1,4.7   c-1-0.2-2-2.9-2.2-4c-0.3-1.9,0.6-8.4,1-10.4c0.2-0.9,1.7-0.1,3.4-0.3c1.9-0.2,1.4-3.4,1.3-4.4c0.3-0.5,1.1-1.3,1-2   c-0.2-1.3-4.9-0.7-4.9-1.2c0-3.4,1.7-7.4,2.7-10.1c0.4-1.1-2-1.9-4.7-2.2c-1.2-0.2-3.4,1-3.5,1.6c-0.3,1.1-1.2,9.1-1.3,10   c-0.1,1.4-1.9,0.1-2.4,1.3c-0.3,0.9-0.2,2.6-0.2,3.2c0,0.4-0.8,1.9-0.4,2.8c0.3,0.8,1.8,0.2,1.7,0.7c-0.1,0.7-0.8,5.9-1.1,9.1   c-6.3,10.2-7.8,3.9-8.4,2.2c-0.6-1.7,0.6-11,1-11.4c0.4-0.3,3.1,0.1,3.9-0.3c0.6-0.3,0.7-1.9,0.5-2.8c-0.1-1.2,1.1-2.3,0.9-3.4   c-0.2-1-4.3-0.3-4.3-0.9c0.1-6.4,2.6-10.2,2.2-11.1c-0.2-0.5-0.1-0.7-4.1-1.6c-1.9-0.5-3.9,1-4.3,1.5c-0.3,0.5-0.9,10.7-1.3,11.1   c-0.4,0.4-1.8-0.1-2.3,0.3c-0.4,0.4,0.1,1.1-0.3,1.9c-0.5,1-1.3,3.4-0.7,4.4c0.3,0.6,2-0.2,2.2,0.5c0.2,0.7-0.9,6.1-0.9,9.2   c0,0.9-3.4,7.6-5.8,3.8c-1-1.7-0.9-3.7-0.4-6.9c1.1-7.1,2.3-9.8,2-10.9c-0.3-1-0.8-1.8-3.3-1.4c-1.7-0.3-3.8-1.1-4.5,0.2   c-0.5,0.9,0.1,3.8-0.9,11.8c-0.7,5.6-2.4,8.7-3.4,9.6c-1.8,1.7-2.4-3.4-2.2-5.7c0.8-9.9,2.2-14.1,2.4-15.7c0.2-1-1.8-1.4-3.6-1.4   c-1.2-0.5-2.4-1-3.5-0.6c-0.4,0.1-1.1,0.8-1.3,1.5c-0.3,0.7,0.2,6.7-0.2,9.3c-0.9,6.1-2,15.7,2.4,17.8c7,3.4,9.4-6.7,10.2-5.9   c0.5,0.5,1.4,3.4,2.9,4.3c4,2.4,8.8-4.9,9-4.1c0.7,2.3,2.7,4.6,5,5.4c5.8,2.1,10.5-6.6,10.8-5.4c0.8,3.2,3.1,5,5.5,5.7   c5.4,1.7,10-5.9,10.1-5.6c0.3,0.5,1.9,3.8,3.8,4.6c2.2,0.9,5.3-0.1,5.5-0.1c0.5,0,1.3-0.6,2.5-1.5c2.3-1.8,2.8-4.9,3.2-4.6   c0.7,0.5,1.4,1.2,3,1.3c2,0.1,3.1-1.3,3.1-0.5c-0.2,2.4-0.1,3.8,0.5,4.4c0.6,0.7,0.9,0.3,2.1,1.2c1.8,1.2,2.4,1,3.1,0.8   c1.2-0.4,1.6-3.3,2-4.6c0.8-2.8,5.1-13.5,5.2-11.5c0.1,1.8-2.6,9.3,2.4,12.9c5,3.5,11.5-4.9,12.8-6.7   C138.4,46.8,138.6,41.9,137.9,41.3L137.9,41.3z M97.3,52.6c-3.3-0.7-2.5-16.2-0.2-20.4c0.5-0.8-0.5,2.2,1,8.6c1.4,6.2,3,6.9,3,7.3   C101,49.1,99.3,53,97.3,52.6L97.3,52.6z M102.2,44.2c-2.3-4.7-2.9-14.8-0.3-11.7C103.7,34.6,103,45.7,102.2,44.2L102.2,44.2z"></path>	</g>	<g>		<path class="st0" d="M162.5,40.5L167,60l1,5.4l1-5.3l3.8-19.6h7.5l4,19.5l1,5.4l1.1-5.2l4.5-19.7h7.2l-9.6,34.1h-6.8l-4.1-19.9   l-1.2-6.6l-1.2,6.6l-4.1,19.9h-6.6L155,40.5H162.5z"></path>		<path class="st0" d="M213.8,49.9c1.8,0.8,3.2,2,4.4,3.7c1,1.5,1.7,3.2,2,5.2c0.2,1.2,0.2,2.8,0.2,5H202c0.1,2.5,1,4.3,2.6,5.3   c1,0.6,2.2,0.9,3.6,0.9c1.5,0,2.7-0.4,3.7-1.2c0.5-0.4,1-1,1.4-1.7h6.7c-0.2,1.5-1,3-2.4,4.6c-2.3,2.4-5.4,3.7-9.5,3.7   c-3.4,0-6.3-1-8.9-3.1c-2.6-2.1-3.8-5.4-3.8-10.1c0-4.4,1.2-7.7,3.5-10c2.3-2.3,5.3-3.5,9-3.5C210,48.7,212,49.1,213.8,49.9z    M203.9,55.6c-0.9,1-1.5,2.3-1.8,3.9h11.3c-0.1-1.7-0.7-3.1-1.8-4c-1-0.9-2.4-1.4-3.9-1.4C206.2,54.1,204.9,54.6,203.9,55.6z"></path>		<path class="st0" d="M225,66.5c0.1,1.2,0.4,2,0.9,2.5c0.8,0.9,2.3,1.3,4.5,1.3c1.3,0,2.3-0.2,3.1-0.6c0.8-0.4,1.1-1,1.1-1.7   c0-0.7-0.3-1.3-0.9-1.7c-0.6-0.4-2.9-1-6.9-2c-2.9-0.7-4.9-1.6-6-2.7c-1.2-1-1.8-2.6-1.8-4.5c0-2.3,0.9-4.3,2.7-6s4.4-2.5,7.7-2.5   c3.1,0,5.7,0.6,7.7,1.9c2,1.3,3.1,3.4,3.4,6.5h-6.6c-0.1-0.8-0.3-1.5-0.7-2c-0.7-0.9-2-1.3-3.7-1.3c-1.4,0-2.5,0.2-3.1,0.7   c-0.6,0.4-0.9,1-0.9,1.6c0,0.8,0.3,1.3,1,1.6c0.6,0.4,2.9,1,6.9,1.8c2.6,0.6,4.6,1.5,5.9,2.8c1.3,1.3,1.9,2.8,1.9,4.7   c0,2.5-0.9,4.5-2.8,6.1s-4.7,2.4-8.6,2.4c-4,0-6.9-0.8-8.8-2.5c-1.9-1.7-2.8-3.8-2.8-6.4H225z"></path>		<path class="st0" d="M240.8,54.3v-4.7h3.5v-7h6.5v7h4.1v4.7h-4.1v13.3c0,1,0.1,1.7,0.4,1.9c0.3,0.3,1.1,0.4,2.4,0.4   c0.2,0,0.4,0,0.6,0c0.2,0,0.4,0,0.7,0v4.9l-3.1,0.1c-3.1,0.1-5.2-0.4-6.4-1.6c-0.7-0.8-1.1-1.9-1.1-3.5V54.3H240.8z"></path>		<path class="st0" d="M262.9,44c2.7-2.8,6.2-4.2,10.5-4.2c5.7,0,9.8,1.9,12.4,5.6c1.4,2.1,2.2,4.2,2.3,6.4H281   c-0.5-1.6-1-2.9-1.7-3.7c-1.3-1.5-3.1-2.2-5.6-2.2c-2.5,0-4.5,1-6,3.1c-1.5,2.1-2.2,5-2.2,8.9c0,3.8,0.8,6.7,2.3,8.6   s3.5,2.9,5.9,2.9c2.4,0,4.3-0.8,5.6-2.4c0.7-0.9,1.3-2.2,1.8-4h7.1c-0.6,3.7-2.2,6.7-4.7,9.1c-2.5,2.3-5.7,3.5-9.6,3.5   c-4.8,0-8.7-1.6-11.4-4.7c-2.8-3.2-4.2-7.5-4.2-13C258.2,51.8,259.8,47.3,262.9,44z"></path>		<path class="st0" d="M312.4,71.5c-2.1,2.6-5.4,3.9-9.7,3.9s-7.6-1.3-9.7-3.9c-2.1-2.6-3.2-5.8-3.2-9.5c0-3.6,1.1-6.8,3.2-9.4   c2.1-2.7,5.4-4,9.7-4s7.6,1.3,9.7,4c2.1,2.7,3.2,5.8,3.2,9.4C315.6,65.7,314.5,68.8,312.4,71.5z M307.1,67.8   c1-1.4,1.5-3.3,1.5-5.8s-0.5-4.5-1.5-5.8s-2.5-2-4.4-2c-1.9,0-3.4,0.7-4.4,2c-1,1.4-1.6,3.3-1.6,5.8s0.5,4.5,1.6,5.8   c1,1.4,2.5,2.1,4.4,2.1C304.6,69.9,306.1,69.2,307.1,67.8z"></path>		<path class="st0" d="M328.4,59.2c1.2-0.2,2.1-0.3,2.6-0.6c0.9-0.4,1.4-1,1.4-1.9c0-1-0.4-1.7-1.1-2.1c-0.7-0.4-1.8-0.6-3.2-0.6   c-1.6,0-2.7,0.4-3.3,1.2c-0.5,0.6-0.8,1.3-0.9,2.3h-6.4c0.1-2.2,0.8-4,1.9-5.4c1.7-2.2,4.7-3.3,9-3.3c2.8,0,5.2,0.5,7.4,1.6   c2.2,1.1,3.2,3.2,3.2,6.2v11.6c0,0.8,0,1.8,0,2.9c0,0.9,0.2,1.4,0.4,1.8c0.2,0.3,0.5,0.6,1,0.8v1h-7.2c-0.2-0.5-0.3-1-0.4-1.4   c-0.1-0.4-0.1-1-0.2-1.5c-0.9,1-2,1.8-3.2,2.5c-1.4,0.8-3,1.2-4.8,1.2c-2.3,0-4.2-0.7-5.7-2c-1.5-1.3-2.2-3.1-2.2-5.5   c0-3.1,1.2-5.3,3.6-6.7c1.3-0.8,3.3-1.3,5.8-1.6L328.4,59.2z M332.4,62.3c-0.4,0.3-0.8,0.5-1.3,0.6s-1,0.3-1.8,0.5l-1.5,0.3   c-1.4,0.2-2.4,0.5-3,0.9c-1,0.6-1.6,1.5-1.6,2.8c0,1.1,0.3,1.9,1,2.4c0.6,0.5,1.4,0.8,2.3,0.8c1.4,0,2.8-0.4,4-1.2   c1.2-0.8,1.8-2.3,1.9-4.6V62.3z"></path>		<path class="st0" d="M348,66.5c0.1,1.2,0.4,2,0.9,2.5c0.8,0.9,2.3,1.3,4.6,1.3c1.3,0,2.3-0.2,3.1-0.6c0.8-0.4,1.1-1,1.1-1.7   c0-0.7-0.3-1.3-0.9-1.7c-0.6-0.4-2.9-1-6.9-2c-2.9-0.7-4.9-1.6-6-2.7c-1.2-1-1.8-2.6-1.8-4.5c0-2.3,0.9-4.3,2.7-6s4.4-2.5,7.7-2.5   c3.1,0,5.7,0.6,7.7,1.9c2,1.3,3.1,3.4,3.4,6.5H357c-0.1-0.8-0.3-1.5-0.7-2c-0.7-0.9-2-1.3-3.7-1.3c-1.4,0-2.5,0.2-3.1,0.7   c-0.6,0.4-0.9,1-0.9,1.6c0,0.8,0.3,1.3,1,1.6c0.6,0.4,2.9,1,6.9,1.8c2.6,0.6,4.6,1.5,5.9,2.8c1.3,1.3,1.9,2.8,1.9,4.7   c0,2.5-0.9,4.5-2.8,6.1c-1.9,1.6-4.7,2.4-8.6,2.4c-4,0-6.9-0.8-8.8-2.5c-1.9-1.7-2.8-3.8-2.8-6.4H348z"></path>		<path class="st0" d="M363.7,54.3v-4.7h3.5v-7h6.5v7h4.1v4.7h-4.1v13.3c0,1,0.1,1.7,0.4,1.9c0.3,0.3,1.1,0.4,2.4,0.4   c0.2,0,0.4,0,0.6,0c0.2,0,0.4,0,0.7,0v4.9l-3.1,0.1c-3.1,0.1-5.2-0.4-6.4-1.6c-0.7-0.8-1.1-1.9-1.1-3.5V54.3H363.7z"></path>		<path class="st0" d="M417.6,41.4c1.3,0.5,2.3,1.3,3.2,2.4c0.7,0.9,1.3,1.8,1.7,2.9c0.4,1,0.6,2.2,0.6,3.6c0,1.6-0.4,3.2-1.2,4.8   c-0.8,1.6-2.2,2.7-4,3.3c1.6,0.6,2.7,1.5,3.3,2.7c0.7,1.2,1,2.9,1,5.3v2.3c0,1.6,0.1,2.6,0.2,3.2c0.2,0.9,0.6,1.5,1.3,1.9v0.9   h-7.9c-0.2-0.8-0.4-1.4-0.5-1.8c-0.2-1-0.3-1.9-0.3-2.9l0-3.2c0-2.2-0.4-3.6-1.1-4.3c-0.7-0.7-2.1-1.1-4.1-1.1h-7v13.4h-7V40.5   h16.3C414.5,40.5,416.3,40.8,417.6,41.4z M402.9,46.4v9.1h7.7c1.5,0,2.7-0.2,3.4-0.6c1.3-0.6,2-1.9,2-3.8c0-2.1-0.7-3.4-2-4.2   c-0.7-0.4-1.8-0.6-3.3-0.6H402.9z"></path>		<path class="st0" d="M443,49.9c1.8,0.8,3.2,2,4.4,3.7c1,1.5,1.7,3.2,2,5.2c0.2,1.2,0.2,2.8,0.2,5h-18.3c0.1,2.5,1,4.3,2.6,5.3   c1,0.6,2.2,0.9,3.6,0.9c1.5,0,2.7-0.4,3.7-1.2c0.5-0.4,1-1,1.4-1.7h6.7c-0.2,1.5-1,3-2.4,4.6c-2.3,2.4-5.4,3.7-9.5,3.7   c-3.4,0-6.3-1-8.9-3.1c-2.6-2.1-3.8-5.4-3.8-10.1c0-4.4,1.2-7.7,3.5-10c2.3-2.3,5.3-3.5,9-3.5C439.2,48.7,441.2,49.1,443,49.9z    M433.1,55.6c-0.9,1-1.5,2.3-1.8,3.9h11.3c-0.1-1.7-0.7-3.1-1.8-4c-1-0.9-2.4-1.4-3.9-1.4C435.4,54.1,434,54.6,433.1,55.6z"></path>		<path class="st0" d="M460,59.2c1.2-0.2,2.1-0.3,2.6-0.6c0.9-0.4,1.4-1,1.4-1.9c0-1-0.4-1.7-1.1-2.1c-0.7-0.4-1.8-0.6-3.2-0.6   c-1.6,0-2.7,0.4-3.3,1.2c-0.5,0.6-0.8,1.3-0.9,2.3h-6.4c0.1-2.2,0.8-4,1.9-5.4c1.7-2.2,4.7-3.3,9-3.3c2.8,0,5.2,0.5,7.4,1.6   c2.2,1.1,3.2,3.2,3.2,6.2v11.6c0,0.8,0,1.8,0,2.9c0,0.9,0.2,1.4,0.4,1.8c0.2,0.3,0.5,0.6,1,0.8v1h-7.2c-0.2-0.5-0.3-1-0.4-1.4   c-0.1-0.4-0.1-1-0.2-1.5c-0.9,1-2,1.8-3.2,2.5c-1.4,0.8-3,1.2-4.8,1.2c-2.3,0-4.2-0.7-5.7-2c-1.5-1.3-2.2-3.1-2.2-5.5   c0-3.1,1.2-5.3,3.6-6.7c1.3-0.8,3.3-1.3,5.8-1.6L460,59.2z M464,62.3c-0.4,0.3-0.8,0.5-1.3,0.6s-1,0.3-1.8,0.5l-1.5,0.3   c-1.4,0.2-2.4,0.5-3,0.9c-1,0.6-1.6,1.5-1.6,2.8c0,1.1,0.3,1.9,1,2.4c0.6,0.5,1.4,0.8,2.3,0.8c1.4,0,2.8-0.4,4-1.2   c1.2-0.8,1.8-2.3,1.9-4.6V62.3z"></path>		<path class="st0" d="M481.2,74.5h-6.6V40.5h6.6V74.5z"></path>		<path class="st0" d="M483.1,54.3v-4.7h3.5v-7h6.5v7h4.1v4.7h-4.1v13.3c0,1,0.1,1.7,0.4,1.9c0.3,0.3,1.1,0.4,2.4,0.4   c0.2,0,0.4,0,0.6,0c0.2,0,0.4,0,0.7,0v4.9l-3.1,0.1c-3.1,0.1-5.2-0.4-6.4-1.6c-0.7-0.8-1.1-1.9-1.1-3.5V54.3H483.1z"></path>		<path class="st0" d="M498.7,79.4l0.8,0c0.6,0,1.3,0,1.8-0.1c0.6-0.1,1.1-0.3,1.5-0.5c0.4-0.3,0.7-0.8,1.1-1.6   c0.3-0.8,0.5-1.3,0.4-1.5l-9.3-26.3h7.3l5.5,18.6l5.2-18.6h7l-8.6,24.8c-1.7,4.8-3,7.7-4,8.9c-1,1.1-2.9,1.7-5.8,1.7   c-0.6,0-1.1,0-1.4,0s-0.9,0-1.6-0.1V79.4z"></path>	</g>	<g>		<path class="st0" d="M160.6,21c0.1,0.9,0.3,1.5,0.7,1.9c0.6,0.7,1.8,1,3.5,1c1,0,1.8-0.1,2.4-0.4c0.6-0.3,0.9-0.7,0.9-1.3   c0-0.6-0.2-1-0.7-1.3c-0.5-0.3-2.2-0.8-5.3-1.5c-2.2-0.5-3.8-1.2-4.7-2c-0.9-0.8-1.4-2-1.4-3.5c0-1.8,0.7-3.3,2.1-4.6   c1.4-1.3,3.4-1.9,5.9-1.9c2.4,0,4.4,0.5,5.9,1.5s2.4,2.6,2.6,5h-5.1c-0.1-0.7-0.3-1.2-0.6-1.5c-0.6-0.7-1.5-1-2.9-1   c-1.1,0-1.9,0.2-2.4,0.5s-0.7,0.7-0.7,1.2c0,0.6,0.2,1,0.8,1.3c0.5,0.3,2.3,0.7,5.3,1.4c2,0.5,3.5,1.2,4.5,2.2   c1,1,1.5,2.2,1.5,3.6c0,1.9-0.7,3.5-2.1,4.7c-1.4,1.2-3.6,1.8-6.6,1.8c-3.1,0-5.3-0.6-6.8-1.9c-1.5-1.3-2.2-2.9-2.2-4.9H160.6z"></path>		<path class="st0" d="M182,7.7v11.7c0,1.1,0.1,1.9,0.4,2.5c0.5,1,1.4,1.5,2.7,1.5c1.7,0,2.9-0.7,3.5-2.1c0.3-0.8,0.5-1.8,0.5-3V7.7   h5.1v19.4h-4.9v-2.7c0,0.1-0.2,0.2-0.4,0.5c-0.2,0.3-0.4,0.6-0.7,0.8c-0.8,0.7-1.6,1.2-2.3,1.5s-1.6,0.4-2.6,0.4   c-2.9,0-4.8-1-5.8-3.1c-0.6-1.1-0.8-2.8-0.8-5V7.7H182z"></path>		<path class="st0" d="M197.2,11.5V7.9h2.7V2.5h5v5.4h3.2v3.6h-3.2v10.3c0,0.8,0.1,1.3,0.3,1.5s0.8,0.3,1.9,0.3c0.2,0,0.3,0,0.5,0   c0.2,0,0.3,0,0.5,0v3.8l-2.4,0.1c-2.4,0.1-4-0.3-4.9-1.2c-0.6-0.6-0.9-1.5-0.9-2.7V11.5H197.2z"></path>		<path class="st0" d="M209.3,11.5V7.9h2.7V2.5h5v5.4h3.2v3.6h-3.2v10.3c0,0.8,0.1,1.3,0.3,1.5s0.8,0.3,1.9,0.3c0.2,0,0.3,0,0.5,0   c0.2,0,0.3,0,0.5,0v3.8l-2.4,0.1c-2.4,0.1-4-0.3-4.9-1.2c-0.6-0.6-0.9-1.5-0.9-2.7V11.5H209.3z"></path>		<path class="st0" d="M239.6,24.8c-1.6,2-4.1,3-7.5,3s-5.8-1-7.5-3c-1.6-2-2.5-4.5-2.5-7.3c0-2.8,0.8-5.2,2.5-7.3   c1.6-2.1,4.1-3.1,7.5-3.1s5.8,1,7.5,3.1c1.6,2.1,2.5,4.5,2.5,7.3C242.1,20.3,241.3,22.8,239.6,24.8z M235.6,22   c0.8-1.1,1.2-2.6,1.2-4.5s-0.4-3.4-1.2-4.5c-0.8-1-1.9-1.6-3.4-1.6c-1.5,0-2.6,0.5-3.4,1.6c-0.8,1-1.2,2.5-1.2,4.5   s0.4,3.4,1.2,4.5c0.8,1.1,1.9,1.6,3.4,1.6C233.6,23.6,234.8,23,235.6,22z"></path>		<path class="st0" d="M261.4,8.9c1.3,1.1,1.9,2.8,1.9,5.2v13.1h-5.2V15.3c0-1-0.1-1.8-0.4-2.3c-0.5-1-1.4-1.5-2.8-1.5   c-1.7,0-2.9,0.7-3.5,2.2c-0.3,0.8-0.5,1.8-0.5,3v10.5h-5.1V7.8h4.9v2.8c0.6-1,1.3-1.7,1.8-2.2c1-0.8,2.4-1.2,4-1.2   C258.5,7.3,260.1,7.8,261.4,8.9z"></path>		<path class="st0" d="M287.7,7.7c1.2,0.5,2.2,1.4,3,2.8V7.7h4.9v18.4c0,2.5-0.4,4.4-1.3,5.7c-1.4,2.2-4.2,3.3-8.3,3.3   c-2.5,0-4.5-0.5-6.1-1.5s-2.4-2.4-2.6-4.4h5.5c0.1,0.6,0.4,1,0.7,1.3c0.5,0.5,1.5,0.7,2.8,0.7c1.8,0,3-0.6,3.7-1.8   c0.4-0.8,0.6-2.1,0.6-4v-1.2c-0.5,0.8-1,1.5-1.6,1.9c-1,0.8-2.3,1.2-3.9,1.2c-2.5,0-4.5-0.9-6-2.6c-1.5-1.8-2.2-4.1-2.2-7.1   c0-2.9,0.7-5.3,2.2-7.3c1.4-2,3.5-2.9,6.1-2.9C286.2,7.3,287,7.4,287.7,7.7z M289.5,21.6c0.8-0.9,1.2-2.3,1.2-4.3   c0-1.8-0.4-3.2-1.2-4.2c-0.8-1-1.8-1.4-3.1-1.4c-1.8,0-3,0.8-3.7,2.5c-0.4,0.9-0.5,2-0.5,3.3c0,1.1,0.2,2.1,0.6,3   c0.7,1.6,1.9,2.5,3.7,2.5C287.6,23,288.6,22.5,289.5,21.6z"></path>		<path class="st0" d="M311.2,7.3c0.1,0,0.2,0,0.4,0v5.2c-0.3,0-0.6-0.1-0.9-0.1c-0.2,0-0.5,0-0.6,0c-2,0-3.4,0.7-4.1,2   c-0.4,0.7-0.6,1.9-0.6,3.5v9.3h-5.1V7.7h4.8v3.4c0.8-1.3,1.5-2.2,2-2.7c0.9-0.8,2.2-1.2,3.7-1.2C311,7.3,311.1,7.3,311.2,7.3z"></path>		<path class="st0" d="M330.8,24.8c-1.6,2-4.1,3-7.5,3c-3.3,0-5.8-1-7.5-3s-2.5-4.5-2.5-7.3c0-2.8,0.8-5.2,2.5-7.3   c1.6-2.1,4.1-3.1,7.5-3.1c3.3,0,5.8,1,7.5,3.1c1.6,2.1,2.5,4.5,2.5,7.3C333.2,20.3,332.4,22.8,330.8,24.8z M326.7,22   c0.8-1.1,1.2-2.6,1.2-4.5s-0.4-3.4-1.2-4.5s-1.9-1.6-3.4-1.6s-2.6,0.5-3.4,1.6c-0.8,1-1.2,2.5-1.2,4.5s0.4,3.4,1.2,4.5   c0.8,1.1,1.9,1.6,3.4,1.6S325.9,23,326.7,22z"></path>		<path class="st0" d="M341.9,7.7v11.7c0,1.1,0.1,1.9,0.4,2.5c0.5,1,1.4,1.5,2.7,1.5c1.7,0,2.9-0.7,3.5-2.1c0.3-0.8,0.5-1.8,0.5-3   V7.7h5.1v19.4h-4.9v-2.7c0,0.1-0.2,0.2-0.4,0.5c-0.2,0.3-0.4,0.6-0.7,0.8c-0.8,0.7-1.6,1.2-2.3,1.5c-0.7,0.3-1.6,0.4-2.6,0.4   c-2.9,0-4.8-1-5.8-3.1c-0.6-1.1-0.8-2.8-0.8-5V7.7H341.9z"></path>		<path class="st0" d="M375.4,9.8c1.6,1.7,2.4,4.1,2.4,7.4c0,3.4-0.8,6-2.3,7.8c-1.5,1.8-3.5,2.7-6,2.7c-1.6,0-2.8-0.4-3.9-1.2   c-0.6-0.4-1.1-1.1-1.6-1.9v10.1h-5v-27h4.9v2.9c0.5-0.8,1.1-1.5,1.8-2c1.1-0.9,2.5-1.3,4-1.3C371.9,7.3,373.8,8.2,375.4,9.8z    M371.5,13.5c-0.7-1.2-1.8-1.7-3.4-1.7c-1.9,0-3.1,0.9-3.8,2.6c-0.4,0.9-0.5,2.1-0.5,3.5c0,2.3,0.6,3.8,1.8,4.8   c0.7,0.5,1.6,0.8,2.6,0.8c1.4,0,2.5-0.5,3.3-1.6c0.7-1.1,1.1-2.5,1.1-4.4C372.6,16,372.2,14.6,371.5,13.5z"></path>	</g>	<g>		<path class="st0" d="M525.1,51.8v-1.7h6.1v1.7h-2.1v5.2h-2v-5.2H525.1z M534.7,50.2l1.3,4l1.2-4h2.9v6.9h-1.8v-5l-1.5,5h-1.6   l-1.5-5v5h-1.8v-6.9H534.7z"></path>	</g></g></svg>